nColumns=19
nRows=35
DataType=double
version=3
OpenSimVersion=4.1
endheader
time	ground_force_tibia_r_vx	ground_force_tibia_r_vy	ground_force_tibia_r_vz	ground_force_tibia_r_px	ground_force_tibia_r_py	ground_force_tibia_r_pz	ground_force_tibia_r_mx	ground_force_tibia_r_my	ground_force_tibia_r_mz	ground_force_tibia_l_vx	ground_force_tibia_l_vy	ground_force_tibia_l_vz	ground_force_tibia_l_px	ground_force_tibia_l_py	ground_force_tibia_l_pz	ground_force_tibia_l_mx	ground_force_tibia_l_my	ground_force_tibia_l_mz
7.16	33.4545	381.742	30.8689	0.454955	4.44089e-17	1.28005	0.0225195	0.256964	0.020779	-27.3645	265.946	-27.3172	0.574728	4.44089e-17	1.13038	0.918384	-8.92545	0.916795
7.165	32.5402	380.519	31.0167	0.457548	4.44089e-17	1.27956	0.0268749	0.314269	0.0256166	-27.9743	265.03	-27.1666	0.576908	4.44089e-17	1.13208	0.981044	-9.29444	0.952716
7.17	32.0819	380.211	31.4735	0.457758	4.44089e-17	1.27961	0.0221245	0.262203	0.0217049	-27.365	265.334	-27.013	0.576613	4.44089e-17	1.13164	0.931846	-9.03529	0.919861
7.175	31.6221	380.819	31.3237	0.458074	4.44089e-17	1.27972	0.0158958	0.191431	0.0157458	-27.5192	266.247	-26.2472	0.576124	4.44089e-17	1.13001	0.882533	-8.53846	0.84174
7.18	31.469	380.512	31.6281	0.458951	4.44089e-17	1.27935	0.0339556	0.410579	0.0341272	-27.8265	267.465	-25.9381	0.574356	4.44089e-17	1.12946	0.915932	-8.80381	0.853773
7.185	31.0109	380.206	31.6271	0.46029	4.44089e-17	1.27887	0.0125739	0.15416	0.0128237	-28.2852	267.465	-26.7005	0.575782	4.44089e-17	1.12917	0.933643	-8.82854	0.881334
7.19	30.5528	379.899	31.6262	0.459378	4.44089e-17	1.27895	0.0235244	0.292507	0.0243509	-28.4368	266.244	-26.3984	0.578067	4.44089e-17	1.13124	0.93483	-8.75251	0.86782
7.195	30.8567	380.206	31.0176	0.460992	4.44089e-17	1.27936	0.0194545	0.239712	0.019556	-28.4375	266.244	-26.7032	0.579098	4.44089e-17	1.13016	0.924101	-8.65183	0.867743
7.2	30.5515	379.903	30.2538	0.461242	4.44089e-17	1.27984	0.00247373	0.0307604	0.00244962	-28.5887	264.719	-26.7071	0.582133	4.44089e-17	1.13132	0.980641	-9.0803	0.916099
7.205	30.248	378.684	29.6387	0.462131	4.44089e-17	1.27927	-0.0179983	-0.225327	-0.0176358	-29.6579	265.022	-26.7055	0.582773	4.44089e-17	1.13181	0.997244	-8.91134	0.89797
7.21	30.2476	378.378	29.7905	0.462332	4.44089e-17	1.2791	-0.0139328	-0.17429	-0.0137223	-29.8109	264.717	-27.1637	0.583595	4.44089e-17	1.13113	1.02426	-9.0953	0.933307
7.215	30.704	378.684	29.4872	0.462819	4.44089e-17	1.27956	-0.000947305	-0.0116834	-0.000909762	-29.8127	265.632	-27.3134	0.581202	4.44089e-17	1.13037	1.03003	-9.17761	0.943682
7.22	30.5518	377.762	31.0098	0.464464	4.44089e-17	1.2791	0.0281545	0.348121	0.0285766	-29.6616	266.544	-26.3951	0.580609	4.44089e-17	1.12986	1.00143	-8.999	0.891145
7.225	30.5497	378.371	31.1653	0.463324	4.44089e-17	1.27874	0.0240054	0.297317	0.0244891	-29.5083	265.326	-27.3138	0.581525	4.44089e-17	1.1321	1.05427	-9.47951	0.975861
7.23	30.8545	378.064	31.6224	0.463178	4.44089e-17	1.27831	0.0238075	0.291717	0.0244	-29.0518	265.935	-27.0068	0.579292	4.44089e-17	1.13172	0.99856	-9.14064	0.928268
7.235	31.0049	378.671	32.2357	0.461246	4.44089e-17	1.27851	0.0458106	0.559497	0.0476292	-29.3579	265.937	-27.9219	0.580569	4.44089e-17	1.13224	1.04979	-9.50949	0.998443
7.24	31.1568	378.672	31.931	0.461295	4.44089e-17	1.27919	0.0294438	0.357853	0.0301755	-29.5114	266.24	-27.6155	0.579638	4.44089e-17	1.13134	1.06019	-9.56461	0.992079
7.245	31.4621	378.37	30.8621	0.461196	4.44089e-17	1.27918	0.0122135	0.146882	0.0119805	-29.5118	265.936	-28.379	0.580914	4.44089e-17	1.13304	1.08455	-9.77309	1.04292
7.25	31.9193	378.373	30.2523	0.461278	4.44089e-17	1.28006	-0.0174913	-0.207342	-0.0165778	-29.8158	264.715	-28.2294	0.583244	4.44089e-17	1.13375	1.08397	-9.62383	1.02629
7.255	31.7674	377.764	29.6398	0.462787	4.44089e-17	1.27968	-0.0176531	-0.209923	-0.0164707	-30.1231	265.631	-29.1419	0.582179	4.44089e-17	1.13277	1.13074	-9.97111	1.09391
7.26	31.4621	377.458	29.6388	0.46377	4.44089e-17	1.2792	-0.0369591	-0.443408	-0.0348173	-30.1231	265.325	-28.6848	0.582207	4.44089e-17	1.133	1.1193	-9.8588	1.06585
7.265	31.4601	378.067	29.7942	0.463329	4.44089e-17	1.27983	-0.0305727	-0.367403	-0.0289538	-29.9712	265.326	-29.2949	0.583545	4.44089e-17	1.13276	1.14929	-10.1743	1.12336
7.27	31.6113	378.37	30.1011	0.463476	4.44089e-17	1.27834	-0.0281179	-0.336557	-0.0267747	-29.8193	265.327	-29.5999	0.583431	4.44089e-17	1.13418	1.16313	-10.3493	1.15457
7.275	31.6085	379.281	31.0208	0.464567	4.44089e-17	1.279	0.00438985	0.0526753	0.00430823	-29.5146	265.326	-29.5997	0.582967	4.44089e-17	1.13512	1.13908	-10.24	1.14237
7.28	31.1492	379.582	31.6326	0.463931	4.44089e-17	1.27877	0.0247976	0.302182	0.0251824	-28.752	265.327	-29.4472	0.583416	4.44089e-17	1.13547	1.13757	-10.4976	1.16507
7.285	30.0804	379.58	31.6325	0.465087	4.44089e-17	1.2782	-0.00788811	-0.0995387	-0.00829512	-28.1427	265.633	-29.9041	0.580875	4.44089e-17	1.13543	1.10838	-10.4618	1.17775
7.29	29.1612	381.101	31.9439	0.464384	4.44089e-17	1.27937	-0.0115296	-0.150678	-0.0126298	-27.6855	265.633	-30.0566	0.580334	4.44089e-17	1.13468	1.09346	-10.4914	1.18711
7.295	29.0089	380.799	31.0274	0.466135	4.44089e-17	1.27859	-0.0478389	-0.62798	-0.0511676	-27.5346	266.246	-31.2753	0.580063	4.44089e-17	1.1333	1.14674	-11.0883	1.30252
7.3	29.0083	380.799	30.8751	0.465698	4.44089e-17	1.27866	-0.0206835	-0.271518	-0.0220146	-27.227	264.111	-31.2813	0.583502	4.44089e-17	1.13522	1.17043	-11.3536	1.34471
7.305	29.0103	379.581	30.2601	0.466605	4.44089e-17	1.27809	-0.0403608	-0.528095	-0.0420995	-27.2269	263.503	-32.0457	0.583249	4.44089e-17	1.13606	1.16471	-11.2721	1.37085
7.31	28.7028	380.495	30.1114	0.467048	4.44089e-17	1.2784	-0.0428228	-0.567675	-0.0449243	-27.2273	263.502	-31.8929	0.583325	4.44089e-17	1.13811	1.15327	-11.1612	1.35089
7.315	28.3968	380.492	30.722	0.467742	4.44089e-17	1.2782	-0.0335433	-0.449451	-0.0362899	-25.8554	264.114	-32.3492	0.581124	4.44089e-17	1.13649	1.14465	-11.6926	1.43214
7.32	28.0891	381.404	31.1837	0.467465	4.44089e-17	1.27876	-0.0361531	-0.4909	-0.0401361	-26.3138	264.417	-31.8902	0.582969	4.44089e-17	1.13688	1.13387	-11.3938	1.37416
7.325	27.478	381.401	31.6415	0.46816	4.44089e-17	1.27854	-0.0298681	-0.414575	-0.0343937	-26.161	263.809	-32.6547	0.583081	4.44089e-17	1.13713	1.15529	-11.65	1.44206
7.33	27.6277	382.62	31.6469	0.467364	4.44089e-17	1.27851	-0.0488766	-0.676899	-0.055987	-26.1617	263.81	-33.2648	0.582888	4.44089e-17	1.13858	1.17417	-11.8401	1.49297
